# xmcd
#
# Track frame offsets:
#	150
#	3821
#	20613
#	35361
#	54523
#	67967
#	84759
#	96729
#	110220
#	122563
#	134101
#	154713
#	167579
#	184722
#
# Disc length: 2887 seconds
#
# Revision: 1
# Processed by: cddbd v1.5.2PL0 Copyright (c) Steve Scherf et al.
# Submitted via: EZCDAudioConverter 4.0.5.1
#
DISCID=b40b450e
DTITLE=Sonny George - Live At The Tennessee Prison For Woman
DYEAR=2001
DGENRE=Country
TTITLE0=Intro
TTITLE1=Big Big Man
TTITLE2=Who's Been Playin' My Guitar
TTITLE3=Tennessee Women
TTITLE4=Big Iron
TTITLE5=Love Star
TTITLE6=Look - A - Here
TTITLE7=Dirty Dog Blues
TTITLE8=Dixie Doll
TTITLE9=On A Train
TTITLE10=Hillbilly Wolfman
TTITLE11=Pick Up Yer Hammer
TTITLE12=Hillbilly Beat
TTITLE13=Love Jam/ I Love Women
EXTD=
EXTT0=
EXTT1=
EXTT2=
EXTT3=
EXTT4=
EXTT5=
EXTT6=
EXTT7=
EXTT8=
EXTT9=
EXTT10=
EXTT11=
EXTT12=
EXTT13=
PLAYORDER=
